<svg xmlns="http://www.w3.org/2000/svg" width="780" height="781" viewBox="0 0 780 781" version="1.1"><path d="M 737.500 263 C 736.400 263.473, 733.839 263.891, 731.809 263.930 C 729.779 263.968, 727.840 264.450, 727.500 265 C 727.160 265.550, 726.051 266, 725.035 266 C 723.039 266, 714.712 270.022, 714.167 271.250 C 713.983 271.663, 713.308 272.007, 712.667 272.016 C 710.632 272.044, 697.497 286.304, 694.950 291.250 C 693.604 293.863, 692.165 296, 691.752 296 C 691.338 296, 691 296.469, 691 297.043 C 691 297.947, 684.528 308.672, 682.277 311.500 C 681.839 312.050, 680.360 314.637, 678.992 317.250 C 677.623 319.863, 676.242 322, 675.923 322 C 675.603 322, 674.288 324.250, 673 327 C 671.712 329.750, 670.315 332, 669.896 332 C 669.478 332, 668.850 332.897, 668.502 333.994 C 668.154 335.091, 667.178 336.679, 666.334 337.524 C 664.659 339.198, 665.120 342.944, 667.276 345.180 C 667.976 345.906, 669.988 348.750, 671.748 351.500 C 673.508 354.250, 675.411 357.046, 675.978 357.712 C 676.545 358.379, 677.529 360.067, 678.165 361.462 C 678.801 362.858, 679.644 364, 680.039 364 C 680.434 364, 681.317 365.350, 682 367 C 682.683 368.650, 683.583 370, 684 370 C 684.417 370, 685.317 371.350, 686 373 C 686.683 374.650, 687.608 376, 688.054 376 C 688.500 376, 689.151 376.900, 689.500 378 C 690.513 381.193, 692.547 380.331, 694.566 375.853 C 695.594 373.573, 696.909 371.210, 697.488 370.603 C 698.066 369.997, 700.541 366.125, 702.989 362 C 705.436 357.875, 707.729 354.275, 708.085 354 C 708.440 353.725, 709.699 351.700, 710.883 349.500 C 713.367 344.880, 722.459 329.980, 723.696 328.500 C 724.156 327.950, 727.885 321.875, 731.983 315 C 736.081 308.125, 739.689 302.275, 740 302 C 740.311 301.725, 743.911 295.875, 748 289 C 752.089 282.125, 755.678 276.275, 755.976 276 C 756.853 275.191, 764 263.255, 764 262.599 C 764 261.667, 739.749 262.034, 737.500 263 M 85 298.116 C 53.472 301.789, 30.506 316.439, 21.599 338.563 C 16.140 352.122, 15.999 354.347, 16.010 426.708 L 16.020 493.500 18.378 498.565 C 21.558 505.394, 25.836 510.053, 31.657 513.026 C 35.781 515.133, 38.163 515.550, 47.697 515.835 L 58.894 516.170 59.222 441.335 L 59.550 366.500 61.764 359.915 C 65.669 348.302, 72.052 341.847, 83.745 337.687 C 88.861 335.867, 92.470 335.595, 116.272 335.235 L 143.044 334.830 142.772 316.165 L 142.500 297.500 117.500 297.371 C 103.750 297.301, 89.125 297.636, 85 298.116 M 165.667 297.667 C 165.300 298.033, 165 306.583, 165 316.667 L 165 335 177.250 335.017 C 202.224 335.053, 215.704 341.201, 222.158 355.500 C 224.087 359.774, 224.473 362.629, 224.814 375.165 L 225.214 389.831 187.857 390.267 C 148.199 390.731, 144.959 391.076, 132 396.217 C 118.528 401.560, 106.768 411.526, 100.728 422.716 C 96.538 430.478, 94 441.795, 94 452.713 C 94 486.275, 112.502 509.756, 144.345 516.607 C 161.612 520.321, 185.298 519.347, 199.319 514.346 C 208.038 511.235, 211.533 509.227, 220.118 502.394 L 226.737 497.127 227.932 499.749 C 230.399 505.165, 235.210 509.949, 241.196 512.940 C 246.946 515.813, 248.011 516, 258.660 516 L 270 516 269.991 445.250 C 269.987 406.337, 269.540 369.495, 268.998 363.377 C 267.238 343.492, 261.943 330.959, 250.393 319.339 C 238.694 307.570, 221.972 300.706, 198.500 298.039 C 188.392 296.891, 166.689 296.644, 165.667 297.667 M 292 407.556 L 292 516.112 345.250 515.764 C 396.659 515.428, 398.777 515.339, 406.500 513.192 C 415.144 510.789, 426.580 505.714, 432.685 501.572 C 442.807 494.704, 453.300 481.521, 457.814 470 C 463.307 455.977, 463.502 453.803, 463.470 407 C 463.441 365.025, 463.361 363.220, 461.197 355.500 C 451.929 322.441, 427.507 303.649, 389.076 300.005 C 383.259 299.453, 359.038 299.001, 335.250 299.001 L 292 299 292 407.556 M 510.734 300.088 C 504.594 301.535, 499.500 304.625, 495.197 309.514 C 487.594 318.151, 488 311.935, 488 419.678 L 488 516 511 516 L 534 516 534 407.500 L 534 299 524.250 299.100 C 518.888 299.156, 512.806 299.600, 510.734 300.088 M 557 299.971 C 557 300.504, 567.190 316.367, 579.644 335.221 C 592.099 354.074, 603.765 372.200, 605.569 375.500 C 615.237 393.185, 614.364 414.001, 603.189 432.264 C 601.090 435.694, 588.688 455.295, 575.628 475.822 C 562.568 496.349, 551.636 513.786, 551.334 514.572 C 550.867 515.788, 554.866 516, 578.283 516 L 605.781 516 627.025 479.750 C 638.709 459.813, 648.771 442.961, 649.385 442.302 C 650.224 441.401, 655.918 450.383, 672.370 478.552 L 694.240 516 722.120 516 C 737.454 516, 750 515.810, 750 515.578 C 750 515.346, 737.577 495.883, 722.392 472.328 C 707.208 448.773, 675.899 400.137, 652.815 364.250 L 610.846 299 583.923 299 C 567.184 299, 557 299.367, 557 299.971 M 336 408 L 336 479 358.750 478.983 C 384.822 478.963, 392.314 477.855, 400.791 472.765 C 411.190 466.522, 415.934 458.001, 417.947 441.953 C 419.303 431.134, 419.313 383.940, 417.960 373.155 C 415.970 357.279, 410.463 348.159, 399.321 342.286 C 390.627 337.703, 385.325 337, 359.451 337 L 336 337 336 408 M 160.251 422.545 C 153.177 424.450, 148.032 427.188, 144.243 431.062 C 139.001 436.424, 137.568 440.482, 137.203 451 C 136.898 459.796, 137.082 460.904, 139.687 465.950 C 145.235 476.699, 154.399 480.972, 173.598 481.761 C 193.844 482.593, 206.548 479.024, 215.728 469.923 C 222.735 462.977, 224.291 457.450, 224.783 437.750 L 225.202 421 195.351 421.066 C 172.944 421.115, 164.191 421.484, 160.251 422.545" stroke="none" fill="#FFF" fill-rule="evenodd"/></svg>